HIERARCHY
ROOT Hips
{
  OFFSET 0 0 0
  CHANNELS 6 Xposition Yposition Zposition Zrotation Xrotation Yrotation
  JOINT Spine
  {
    OFFSET 0 10 0
    CHANNELS 3 Zrotation Xrotation Yrotation
    JOINT Neck
    {
      OFFSET 0 30 0
      CHANNELS 3 Zrotation Xrotation Yrotation
      JOINT Head
      {
        OFFSET 0 8 0
        CHANNELS 3 Zrotation Xrotation Yrotation
        End Site
        {
          OFFSET 0 10 0
        }
      }
    }
    JOINT LeftArm
    {
      OFFSET 15 30 0
      CHANNELS 3 Zrotation Xrotation Yrotation
      JOINT LeftForeArm
      {
        OFFSET 25 0 0
        CHANNELS 3 Zrotation Xrotation Yrotation
        JOINT LeftHand
        {
          OFFSET 25 0 0
          CHANNELS 3 Zrotation Xrotation Yrotation
          End Site
          {
            OFFSET 10 0 0
          }
        }
      }
    }
    JOINT RightArm
    {
      OFFSET -15 30 0
      CHANNELS 3 Zrotation Xrotation Yrotation
      JOINT RightForeArm
      {
        OFFSET -25 0 0
        CHANNELS 3 Zrotation Xrotation Yrotation
        JOINT RightHand
        {
          OFFSET -25 0 0
          CHANNELS 3 Zrotation Xrotation Yrotation
          End Site
          {
            OFFSET -10 0 0
          }
        }
      }
    }
  }
  JOINT LeftUpLeg
  {
    OFFSET 10 -10 0
    CHANNELS 3 Zrotation Xrotation Yrotation
    JOINT LeftLeg
    {
      OFFSET 0 -35 0
      CHANNELS 3 Zrotation Xrotation Yrotation
      JOINT LeftFoot
      {
        OFFSET 0 -40 0
        CHANNELS 3 Zrotation Xrotation Yrotation
        End Site
        {
          OFFSET 0 0 15
        }
      }
    }
  }
  JOINT RightUpLeg
  {
    OFFSET -10 -10 0
    CHANNELS 3 Zrotation Xrotation Yrotation
    JOINT RightLeg
    {
      OFFSET 0 -35 0
      CHANNELS 3 Zrotation Xrotation Yrotation
      JOINT RightFoot
      {
        OFFSET 0 -40 0
        CHANNELS 3 Zrotation Xrotation Yrotation
        End Site
        {
          OFFSET 0 0 15
        }
      }
    }
  }
}
MOTION
Frames:	20
Frame Time:	0.00833333
43.5728 82.4013 133.654 0 0 -0 0 0 -0 0 0 -0 0 0 -0 -6.83019e-06 -1.70755e-06 -1.53679e-05 6.83019e-06 1.70755e-06 2.50273e-05 1.69173e-28 0 -9.65935e-06 6.83019e-06 -8.53773e-07 5.12264e-06 -6.83019e-06 -5.97642e-06 -1.4782e-05 -5.75742e-13 6.83019e-06 9.65935e-06 0 0 -0 -0 -6.83019e-06 -0 0 6.83019e-06 -0 3.41509e-06 0 -0 -3.41509e-06 -6.83019e-06 -0 0 6.83019e-06 -0 
43.4575 81.7972 130.478 4.01598 4.14123 -38.0444 -0.47812 -2.90272 -0.313068 1.20051 0.0730731 0.685135 -0.445438 2.58066 0.796973 -14.792 9.21456 -2.02521 4.30124 -2.15599 -6.35669 -0.319779 -10.0721 1.27997 13.9211 6.72362 -2.41678 -7.32986 -4.69351 9.1572 0.0405987 -3.5528 -0.493181 0.943521 -7.6475 -0.968336 -0.0201845 7.15314 -0.118977 0.129733 -4.14167 1.93012 -4.09637 -11.7928 2.54416 0.0169606 6.48687 0.108932 -0.150183 -1.76917 -4.46014 
43.3227 81.1506 127.089 12.315 2.12667 -78.8672 -1.03191 -6.01214 -0.653707 2.48753 0.145514 1.4243 -1.002 5.34823 1.66469 -29.9068 19.0311 -4.39305 8.38904 -4.37859 -13.2107 -0.130214 -20.8769 2.79807 29.5268 13.9032 -5.14137 -13.529 -9.30607 19.1784 0.0155525 -7.36408 -1.02892 1.66489 -15.8744 -2.0691 -0.00777341 14.8591 -0.253665 0.583566 -8.57467 4.04246 -7.1823 -24.3793 5.66155 0.00704534 13.5041 0.231668 -0.612991 -3.6218 -9.22672 
43.1976 80.5252 123.807 16.9572 -7.58569 -117.036 -1.59993 -9.01748 -0.987371 3.72858 0.218187 2.13646 -1.62062 8.01811 2.51072 -43.6238 28.4402 -7.08776 11.834 -6.34692 -19.8842 0.693578 -31.2678 4.58905 45.2857 20.7491 -8.00801 -17.9837 -12.9569 29.1862 -0.0776475 -11.0439 -1.55954 2.02917 -23.792 -3.26278 0.0415132 22.2883 -0.397469 1.33955 -12.8219 6.14971 -8.55542 -36.3394 9.61588 -0.0329801 20.2559 0.360169 -1.35538 -5.34411 -13.8737 
43.1116 79.9851 120.95 13.4433 -18.4049 -150.034 -2.10602 -11.6082 -1.27679 4.79158 0.291979 2.74057 -2.21799 10.3075 3.23695 -54.5071 36.4641 -9.96057 14.4189 -7.83236 -25.6653 2.08676 -40.1107 6.59729 59.3922 26.5115 -10.7415 -20.7562 -15.1826 38.0543 -0.213898 -14.2032 -2.03107 2.02267 -30.5183 -4.45738 0.117585 28.6116 -0.537888 2.24508 -16.4223 8.02993 -7.87913 -46.291 14.4981 -0.093585 25.9468 0.48147 -2.23261 -6.75553 -17.9609 
43.0941 79.5942 118.838 5.54748 -24.284 -175.139 -2.46178 -13.4744 -1.4802 5.5448 0.367819 3.15561 -2.6831 11.9366 3.73617 -61.5693 42.2035 -12.4963 16.0633 -8.74613 -29.8063 3.623 -46.3076 8.45933 69.7393 30.5173 -12.8556 -22.2582 -16.15 44.493 -0.344004 -16.4543 -2.37892 1.78872 -35.1855 -5.44149 0.192964 32.9996 -0.649662 3.03223 -18.9423 9.40367 -5.82822 -53.026 19.4965 -0.151218 29.7811 0.572862 -3.0173 -7.72828 -21.0294 
43.1602 79.399 117.685 0.345473 -25.8058 172.482 -2.60204 -14.4134 -1.56861 5.90107 0.445835 3.32489 -2.91952 12.7251 3.92481 -64.6605 45.1648 -13.9118 16.7968 -9.1395 -31.7901 4.55777 -49.188 9.51667 74.6606 32.3808 -13.8429 -22.8926 -16.4562 47.6543 -0.416657 -17.542 -2.55109 1.57132 -37.2245 -5.95088 0.233047 34.8828 -0.702682 3.43008 -20.1033 10.0283 -4.42391 -56.0172 22.6442 -0.178143 31.192 0.609424 -3.5059 -8.22934 -22.7919 
43.2904 79.3567 117.278 -0.521834 -26.0255 170.97 -2.56763 -14.6325 -1.56558 5.9493 0.52547 3.30243 -2.9609 12.8623 3.8659 -65.0584 46.0333 -14.1333 16.9055 -9.20452 -32.0822 4.68032 -49.5253 9.65157 75.1634 32.6223 -13.8256 -23.0318 -16.5848 48.2556 -0.428736 -17.7261 -2.58033 1.47934 -37.2282 -6.00805 0.233864 34.8142 -0.701575 3.45149 -20.22 10.0359 -4.68875 -56.3095 23.3063 -0.173183 30.7099 0.597946 -3.70801 -8.39817 -23.5357 
43.4619 79.3979 117.296 1.30344 -25.7927 175.749 -2.42958 -14.4361 -1.50714 5.82186 0.606634 3.17325 -2.8932 12.6228 3.67015 -63.9987 45.7016 -13.5958 16.6671 -9.09182 -31.4054 4.29115 -48.3984 9.21551 73.1277 31.9476 -13.2075 -22.9108 -16.6617 47.383 -0.403933 -17.3919 -2.52666 1.47349 -36.0752 -5.79771 0.2121 33.6485 -0.669728 3.25731 -19.7539 9.69654 -6.05832 -55.1044 22.3643 -0.151594 29.1854 0.560748 -3.72393 -8.3788 -23.66 
43.6519 79.4528 117.416 3.6828 -25.1935 -177.953 -2.26117 -14.1288 -1.43019 5.65069 0.689212 3.02236 -2.80611 12.281 3.44963 -62.564 45.0383 -12.8665 16.3359 -8.92827 -30.4865 3.80719 -46.8747 8.66331 70.4875 31.05 -12.4305 -22.7158 -16.7 46.1208 -0.370817 -16.9246 -2.45219 1.483 -34.6414 -5.52795 0.187075 32.2404 -0.63244 3.02644 -19.1629 9.2891 -7.54637 -53.5162 21.0861 -0.129159 27.4694 0.520449 -3.67647 -8.30066 -23.5683 
43.8377 79.4519 117.318 4.72682 -24.8464 -174.817 -2.13417 -14.0153 -1.37114 5.56723 0.773064 2.93479 -2.78424 12.1121 3.31503 -61.886 44.9247 -12.4753 16.1785 -8.85408 -30.0503 3.56358 -46.0298 8.37698 69.1252 30.637 -11.9034 -22.641 -16.7509 45.5591 -0.355519 -16.7095 -2.418 1.46732 -33.8051 -5.38273 0.174112 31.4447 -0.612064 2.9197 -18.909 9.08426 -8.40897 -52.6978 20.5067 -0.117109 26.4125 0.49662 -3.69071 -8.29124 -23.6639 
44.0204 79.3919 117 4.55286 -24.9511 -174.799 -2.0525 -14.0991 -1.32721 5.57605 0.85947 2.91252 -2.82809 12.116 3.26788 -61.9854 45.3649 -12.4046 16.1981 -8.87254 -30.092 3.52437 -45.8452 8.32258 69.0201 30.7127 -11.6091 -22.6897 -16.8287 45.6983 -0.357132 -16.7483 -2.42395 1.43642 -33.5716 -5.34955 0.171599 31.2712 -0.607648 2.93509 -19.0045 9.08848 -8.7276 -52.6636 20.5436 -0.113455 26.0149 0.488028 -3.78669 -8.38377 -23.9755 
44.2152 79.3193 116.677 4.3723 -25.0544 -174.802 -1.96851 -14.1771 -1.27417 5.58947 0.948519 2.89888 -2.88159 12.1095 3.23447 -62.0993 45.7699 -12.3077 16.2154 -8.88879 -30.1288 3.47372 -45.6032 8.25194 68.9212 30.8039 -11.2776 -22.7296 -16.893 45.8114 -0.358533 -16.7841 -2.42946 1.41511 -33.3551 -5.30722 0.169417 31.1501 -0.604336 2.96641 -19.1412 9.12175 -8.97549 -52.64 20.5267 -0.110528 25.7095 0.481472 -3.88172 -8.49297 -24.2342 
44.4204 79.2388 116.35 4.19197 -25.1536 -174.814 -1.8752 -14.244 -1.21589 5.6002 1.03827 2.89088 -2.94097 12.0928 3.21174 -62.2261 46.1409 -12.1895 16.2331 -8.90549 -30.1665 3.41875 -45.336 8.17481 68.8255 30.9133 -10.9134 -22.7613 -16.9444 45.9008 -0.359664 -16.8144 -2.43411 1.4063 -33.1491 -5.26043 0.167594 31.0667 -0.601847 3.0067 -19.3029 9.17007 -9.16219 -52.6272 20.4545 -0.108366 25.496 0.476911 -3.94549 -8.56902 -24.3972 
44.6342 79.1554 116.019 4.01879 -25.2458 -174.821 -1.76562 -14.2944 -1.15626 5.60099 1.1268 2.88555 -3.00244 12.066 3.19662 -62.3643 46.4787 -12.0548 16.254 -8.92529 -30.2109 3.36615 -45.0759 8.10056 68.7298 31.0437 -10.5211 -22.7854 -16.9837 45.9687 -0.360464 -16.8366 -2.43752 1.41298 -32.9469 -5.21382 0.166172 31.0062 -0.599905 3.04885 -19.4737 9.21935 -9.29733 -52.6253 20.3253 -0.107029 25.3742 0.474318 -3.94706 -8.56242 -24.4211 
44.8548 79.0738 115.685 3.85979 -25.3279 -174.811 -1.63285 -14.323 -1.09916 5.58459 1.21215 2.8799 -3.06221 12.0294 3.18605 -62.5116 46.7846 -11.9087 16.2809 -8.95082 -30.2679 3.32213 -44.8551 8.03812 68.631 31.1976 -10.1052 -22.8025 -17.0115 46.0173 -0.360874 -16.848 -2.43927 1.43815 -32.7419 -5.17202 0.165197 30.9538 -0.598238 3.08553 -19.6373 9.25542 -9.39061 -52.6341 20.1375 -0.106597 25.3438 0.473681 -3.8564 -8.42313 -24.2633 
45.0856 78.9898 115.346 3.70449 -25.3992 -174.79 -1.49249 -14.3336 -1.04412 5.557 1.29734 2.87375 -3.11994 11.983 3.17938 -62.6636 47.0618 -11.744 16.3137 -8.98198 -30.3376 3.28622 -44.6735 7.98707 68.5355 31.386 -9.66727 -22.8131 -17.0286 46.048 -0.361331 -16.8575 -2.44074 1.4759 -32.5279 -5.13142 0.164773 30.9081 -0.596747 3.11779 -19.8022 9.2781 -9.44012 -52.6411 19.8696 -0.107191 25.4101 0.475121 -3.64828 -8.12047 -23.8387 
45.3276 78.9002 115.001 3.54826 -25.4616 -174.767 -1.34924 -14.3299 -0.988573 5.52305 1.38367 2.86908 -3.17815 11.9266 3.17866 -62.8218 47.3096 -11.5571 16.3505 -9.01697 -30.4162 3.254 -44.5096 7.9412 68.4438 31.6068 -9.20352 -22.8168 -17.0346 46.0591 -0.361872 -16.8669 -2.44219 1.52418 -32.3093 -5.08895 0.164866 30.8789 -0.59561 3.15047 -19.9792 9.29685 -9.43934 -52.6456 19.5225 -0.108755 25.5733 0.478644 -3.34989 -7.68394 -23.1779 
45.5761 78.8113 114.655 3.4069 -25.5164 -174.732 -1.17985 -14.3059 -0.933258 5.47371 1.46661 2.86617 -3.23733 11.8603 3.18485 -62.9926 47.5226 -11.3586 16.3913 -9.05589 -30.5034 3.22552 -44.3637 7.90055 68.3441 31.8432 -8.71043 -22.8132 -17.0286 46.0488 -0.361838 -16.8628 -2.44157 1.592 -32.0954 -5.04996 0.165311 30.8684 -0.594973 3.18178 -20.1556 9.31186 -9.39165 -52.6656 19.1281 -0.111133 25.8255 0.484086 -3.00976 -7.15416 -22.4112 
45.8261 78.7296 114.309 3.2963 -25.5648 -174.674 -0.961113 -14.2559 -0.878932 5.39999 1.54166 2.8653 -3.29793 11.7841 3.1989 -63.1822 47.6958 -11.1597 16.4362 -9.09882 -30.5992 3.20079 -44.2362 7.86519 68.225 32.0784 -8.18471 -22.8015 -17.0097 46.0151 -0.36057 -16.8319 -2.43682 1.68849 -31.8954 -5.01973 0.165949 30.8789 -0.594981 3.20988 -20.3189 9.32327 -9.30129 -52.7193 18.7174 -0.114186 26.1588 0.491288 -2.67072 -6.57513 -21.6677 
